<?xml version="1.0" standalone="no"?>
<!DOCTYPE svg PUBLIC "-//W3C//DTD SVG 20010904//EN"
 "http://www.w3.org/TR/2001/REC-SVG-20010904/DTD/svg10.dtd">
<svg version="1.0" xmlns="http://www.w3.org/2000/svg"
 width="200.000000pt" height="200.000000pt" viewBox="0 0 200.000000 200.000000"
 preserveAspectRatio="xMidYMid meet">

<g transform="translate(0.000000,200.000000) scale(0.100000,-0.100000)"
fill="#000000" stroke="none">
<path d="M880 1994 c-118 -22 -188 -42 -269 -76 -292 -123 -504 -373 -584
-688 -30 -121 -30 -339 0 -460 94 -370 364 -642 737 -742 117 -32 355 -32 472
0 377 101 654 385 740 757 26 110 26 320 0 430 -86 372 -373 665 -740 756 -78
20 -298 34 -356 23z m460 -292 l0 -168 -581 -284 c-320 -157 -587 -286 -595
-288 -11 -3 -14 19 -13 120 0 68 4 143 7 167 l7 44 585 288 c322 158 586 288
588 288 1 1 2 -75 2 -167z m328 -434 l-3 -163 -140 -70 c-77 -38 -326 -160
-552 -272 l-413 -202 0 168 0 167 543 266 c298 147 548 267 555 267 10 1 12
-35 10 -161z m-168 -663 l0 -165 -267 -130 c-146 -71 -267 -129 -268 -128 0 2
1 78 3 169 l4 167 257 125 c141 69 259 126 264 126 4 1 7 -73 7 -164z"/>
</g>
</svg>
