<svg xmlns="http://www.w3.org/2000/svg" version="1.0" width="200.000000pt" height="200.000000pt" viewBox="0 0 200.000000 200.000000" preserveAspectRatio="xMidYMid meet">
<g transform="translate(0.000000,200.000000) scale(0.100000,-0.100000)" fill="#011018" stroke="none">
<path d="M880 1994 c-142 -19 -326 -90 -451 -175 -295 -200 -467 -587 -420 -943 57 -428 368 -763 796 -857 78 -17 312 -17 390 0 436 96 749 440 798 878 39 352 -132 725 -422 922 -92 62 -234 127 -331 151 -84 20 -284 33 -360 24z m442 -171 c15 -14 18 -32 18 -120 0 -109 -11 -154 -47 -185 -23 -21 -1079 -538 -1098 -538 -31 0 -45 42 -45 135 0 105 11 153 42 182 25 23 1074 541 1097 542 8 1 23 -6 33 -16z m332 -435 c12 -17 16 -48 16 -121 0 -102 -12 -149 -46 -179 -21 -18 -1000 -498 -1016 -498 -7 0 -20 7 -30 17 -15 14 -18 32 -18 125 0 112 9 146 47 180 24 22 993 497 1015 497 9 1 24 -9 32 -21z m-173 -648 c17 -10 19 -22 19 -133 0 -174 10 -163 -256 -292 -120 -58 -225 -105 -235 -105 -10 0 -25 10 -34 22 -13 19 -15 41 -9 133 4 63 13 122 21 139 12 23 56 49 236 137 122 59 226 108 230 109 5 0 17 -5 28 -10z"/>
</g>
</svg>
